<!-- Generated by readme-aura https://github.com/collectioneur/readme-aura -->
<svg width="200" height="44" viewBox="0 0 200 44" xmlns="http://www.w3.org/2000/svg"><defs><clipPath id="satori_bc-id"><path x="0" y="0" width="200" height="44" d="M22,0 h156 a22,22 0 0 1 22,22 v0 a22,22 0 0 1 -22,22 h-156 a22,22 0 0 1 -22,-22 v0 a22,22 0 0 1 22,-22"/></clipPath></defs><mask id="satori_om-id"><rect x="1" y="1" width="198" height="42" fill="#fff"/><path width="200" height="44" fill="none" stroke="#000" stroke-width="2" d="M6.444000000000001,6.444000000000001 A22,22 0 0 1 22,0 h156 a22,22 0 0 1 22,22 v0 a22,22 0 0 1 -22,22 h-156 a22,22 0 0 1 -22,-22 v0 A22,22 0 0 1 6.444000000000001,6.444000000000001"/></mask><path x="0" y="0" width="200" height="44" fill="#08080c" d="M22,0 h156 a22,22 0 0 1 22,22 v0 a22,22 0 0 1 -22,22 h-156 a22,22 0 0 1 -22,-22 v0 a22,22 0 0 1 22,-22"/><path width="200" height="44" clip-path="url(#satori_bc-id)" fill="none" stroke="rgba(120,90,240,0.35)" stroke-width="2" d="M6.444000000000001,6.444000000000001 A22,22 0 0 1 22,0 h156 a22,22 0 0 1 22,22 v0 a22,22 0 0 1 -22,22 h-156 a22,22 0 0 1 -22,-22 v0 A22,22 0 0 1 6.444000000000001,6.444000000000001"/><mask id="satori_om-id-0"><rect x="65" y="14" width="71" height="16" fill="#fff"/></mask><mask id="satori_om-id-0-0"><rect x="65" y="18" width="8" height="8" fill="#fff"/></mask><path x="65" y="18" width="8" height="8" fill="#0A66C2" d="M69,18 h0 a4,4 0 0 1 4,4 v0 a4,4 0 0 1 -4,4 h0 a4,4 0 0 1 -4,-4 v0 a4,4 0 0 1 4,-4"/><mask id="satori_om-id-0-1"><rect x="81" y="14" width="55" height="16" fill="#fff"/></mask><g  ><path fill="#f0eeff" d="M87.9 27L81.9 27L81.9 17.5L83.8 17.5L83.8 25.4L87.9 25.4L87.9 27ZM91.1 27L89.2 27L89.2 19.9L91.1 19.9L91.1 27ZM90.1 19.0L90.1 19.0Q89.7 19.0 89.4 18.7Q89.1 18.4 89.1 18.0L89.1 18.0Q89.1 17.6 89.4 17.3Q89.7 17.0 90.1 17.0L90.1 17.0Q90.5 17.0 90.9 17.3Q91.2 17.6 91.2 18.0L91.2 18.0Q91.2 18.4 90.9 18.7Q90.5 19.0 90.1 19.0ZM94.6 22.9L94.6 22.9L94.6 27L92.7 27L92.7 19.9L94.5 19.9L94.5 21.4Q94.8 20.7 95.3 20.3L95.3 20.3Q95.8 19.8 96.7 19.8L96.7 19.8Q97.5 19.8 98.0 20.1Q98.6 20.5 98.9 21.1Q99.2 21.7 99.2 22.5L99.2 22.5L99.2 27L97.3 27L97.3 22.8Q97.3 22.2 96.9 21.8Q96.6 21.4 96.0 21.4L96.0 21.4Q95.6 21.4 95.3 21.6Q94.9 21.8 94.8 22.1Q94.6 22.4 94.6 22.9ZM102.7 27L100.8 27L100.8 17.5L102.7 17.5L102.7 22.6L102.8 22.6L105.1 19.9L107.3 19.9L104.7 23.0L107.5 27L105.2 27L103.2 24.1L102.7 24.7L102.7 27ZM111.5 27.1L111.5 27.1Q110.4 27.1 109.7 26.7Q108.9 26.3 108.4 25.4Q108.0 24.6 108.0 23.5L108.0 23.5Q108.0 22.4 108.4 21.6Q108.9 20.7 109.6 20.3Q110.4 19.8 111.4 19.8L111.4 19.8Q112.1 19.8 112.7 20.0Q113.3 20.3 113.8 20.7Q114.2 21.2 114.5 21.8Q114.8 22.5 114.8 23.4L114.8 23.4L114.8 23.9L109.9 23.9Q109.9 24.5 110.1 24.9L110.1 24.9Q110.3 25.3 110.7 25.5Q111.1 25.7 111.6 25.7L111.6 25.7Q111.9 25.7 112.2 25.6Q112.4 25.5 112.6 25.3Q112.8 25.1 112.9 24.9L112.9 24.9L114.7 25.2Q114.5 25.8 114.1 26.2Q113.6 26.7 113.0 26.9Q112.4 27.1 111.5 27.1ZM109.9 22.8L109.9 22.8L112.9 22.8Q112.9 22.4 112.8 22.1L112.8 22.1Q112.6 21.7 112.3 21.5Q111.9 21.2 111.4 21.2L111.4 21.2Q111.0 21.2 110.6 21.5Q110.3 21.7 110.1 22.1L110.1 22.1Q110.0 22.4 109.9 22.8ZM118.7 27.1L118.7 27.1Q117.8 27.1 117.2 26.7Q116.5 26.3 116.1 25.5Q115.8 24.6 115.8 23.5L115.8 23.5Q115.8 22.3 116.2 21.4Q116.6 20.6 117.2 20.2Q117.9 19.8 118.6 19.8L118.6 19.8Q119.3 19.8 119.7 20.0Q120.1 20.2 120.3 20.5Q120.5 20.8 120.7 21.1L120.7 21.1L120.7 21.1L120.7 17.5L122.6 17.5L122.6 27L120.8 27L120.8 25.9L120.7 25.9Q120.5 26.1 120.3 26.4Q120.0 26.7 119.6 26.9Q119.2 27.1 118.7 27.1ZM119.2 25.6L119.2 25.6Q119.7 25.6 120.1 25.3Q120.4 25.1 120.6 24.6Q120.8 24.1 120.8 23.5L120.8 23.5Q120.8 22.8 120.6 22.3Q120.4 21.9 120.1 21.6Q119.7 21.3 119.2 21.3L119.2 21.3Q118.7 21.3 118.4 21.6Q118.1 21.9 117.9 22.4Q117.7 22.8 117.7 23.5L117.7 23.5Q117.7 24.1 117.9 24.6Q118.1 25.0 118.4 25.3Q118.7 25.6 119.2 25.6ZM124.3 17.5L126.2 17.5L126.2 27L124.3 27L124.3 17.5ZM129.8 22.9L129.8 22.9L129.8 27L127.9 27L127.9 19.9L129.7 19.9L129.7 21.4Q130.0 20.7 130.5 20.3L130.5 20.3Q131.0 19.8 131.9 19.8L131.9 19.8Q132.7 19.8 133.2 20.1Q133.8 20.5 134.1 21.1Q134.4 21.7 134.4 22.5L134.4 22.5L134.4 27L132.5 27L132.5 22.8Q132.5 22.2 132.1 21.8Q131.8 21.4 131.2 21.4L131.2 21.4Q130.8 21.4 130.5 21.6Q130.2 21.8 130.0 22.1Q129.8 22.4 129.8 22.9Z "/></g></svg>